# Wavefront OBJ file
# HAnim 2.1 Standard Anatomical Feature Points
# Pose: I-Pose (Arms Down, Feet Together)
# Units: Meters

# --- VERTICES: 104 HAnim 2.1 Feature Points ---
# Midline Sites
v 0.0000 1.8200 0.0000 # 1: vertex
v 0.0000 1.7250 0.0950 # 2: glabella
v 0.0000 1.7050 0.0880 # 3: nasion
v 0.0000 1.6900 0.0850 # 4: sellion
v 0.0000 1.6750 0.1050 # 5: rhinion
v 0.0000 1.6400 0.1000 # 6: subnasale
v 0.0000 1.6150 0.0950 # 7: labiale_superior
v 0.0000 1.5950 0.0920 # 8: labiale_inferior
v 0.0000 1.5700 0.0850 # 9: promenton
v 0.0000 1.5400 0.0650 # 10: menton
v 0.0000 1.5250 -0.0900 # 11: cervicale
v 0.0000 1.4900 0.0600 # 12: suprasternale
v 0.0000 1.3100 0.0850 # 13: substernale
v 0.0000 1.1000 0.1100 # 14: navel
v 0.0000 1.0500 0.1050 # 15: waist_preferred_ant
v 0.0000 1.0800 -0.0800 # 16: waist_preferred_post
v 0.0000 0.8500 0.0000 # 17: crotch

# Left Side (L) - Translated for I-Pose
v 0.0750 1.6850 -0.0150 # 18: tragion_l
v 0.0600 1.5800 -0.0100 # 19: gonion_l
v 0.0420 1.6950 0.0650 # 20: ectocanthus_l
v 0.0150 1.6950 0.0750 # 21: endocanthus_l
v 0.0250 1.6650 0.0700 # 22: infraorbitale_l
v 0.0180 1.6450 0.0850 # 23: alare_l
v 0.0250 1.6050 0.0800 # 24: cheilion_l
v 0.2050 1.5200 -0.0100 # 25: acromion_l
v 0.1650 1.4000 0.0700 # 26: axilla_ant_l
v 0.1650 1.4000 -0.0700 # 27: axilla_post_l
v 0.1050 1.3600 0.1200 # 28: thelion_l
v 0.2250 1.2400 -0.0200 # 29: radiale_l (Dropped for I-Pose)
v 0.2250 1.2400 -0.0500 # 30: olecranon_l
v 0.2250 0.9800 0.0000 # 31: stylion_l (Dropped for I-Pose)
v 0.2350 0.8900 0.0350 # 32: metacarpale_ii_l
v 0.2350 0.8900 -0.0350 # 33: metacarpale_v_l
v 0.2450 0.9000 0.0700 # 34: thumb_tip_l
v 0.2350 0.8100 0.0300 # 35: dactylion_ii_l
v 0.2350 0.7900 0.0000 # 36: dactylion_iii_l
v 0.2350 0.8150 -0.0250 # 37: dactylion_iv_l
v 0.2350 0.8400 -0.0450 # 38: dactylion_v_l
v 0.1650 1.0600 0.0100 # 39: iliocristale_l
v 0.1300 1.0200 0.0900 # 40: asis_l
v 0.0600 1.0300 -0.0950 # 41: psis_l
v 0.1250 0.9100 0.0000 # 42: trochanterion_l (Feet closer)
v 0.0850 0.5100 0.0100 # 43: femur_lateral_epicondyle_l
v 0.0200 0.5100 0.0100 # 44: femur_medial_epicondyle_l
v 0.0800 0.4800 0.0000 # 45: tibiale_lateral_l
v 0.0750 0.0800 -0.0100 # 46: malleolus_lateral_l
v 0.0150 0.0900 -0.0100 # 47: malleolus_medial_l
v 0.0400 0.0000 -0.0900 # 48: pternion_l
v 0.0450 0.0000 0.1800 # 49: acropodion_l
v 0.0150 0.0100 0.1250 # 50: metatarsale_mt_i_l
v 0.0700 0.0100 0.1050 # 51: metatarsale_mt_v_l
v 0.0400 0.0300 -0.0850 # 52: calcaneum_l

# Right Side (R) - Mirrored X
v -0.0750 1.6850 -0.0150 # 53: tragion_r
v -0.0600 1.5800 -0.0100 # 54: gonion_r
v -0.0420 1.6950 0.0650 # 55: ectocanthus_r
v -0.0150 1.6950 0.0750 # 56: endocanthus_r
v -0.0250 1.6650 0.0700 # 57: infraorbitale_r
v -0.0180 1.6450 0.0850 # 58: alare_r
v -0.0250 1.6050 0.0800 # 59: cheilion_r
v -0.2050 1.5200 -0.0100 # 60: acromion_r
v -0.1650 1.4000 0.0700 # 61: axilla_ant_r
v -0.1650 1.4000 -0.0700 # 62: axilla_post_r
v -0.1050 1.3600 0.1200 # 63: thelion_r
v -0.2250 1.2400 -0.0200 # 64: radiale_r
v -0.2250 1.2400 -0.0500 # 65: olecranon_r
v -0.2250 0.9800 0.0000 # 66: stylion_r
v -0.2350 0.8900 0.0350 # 67: metacarpale_ii_r
v -0.2350 0.8900 -0.0350 # 68: metacarpale_v_r
v -0.2450 0.9000 0.0700 # 69: thumb_tip_r
v -0.2350 0.8100 0.0300 # 70: dactylion_ii_r
v -0.2350 0.7900 0.0000 # 71: dactylion_iii_r
v -0.2350 0.8150 -0.0250 # 72: dactylion_iv_r
v -0.2350 0.8400 -0.0450 # 73: dactylion_v_r
v -0.1650 1.0600 0.0100 # 74: iliocristale_r
v -0.1300 1.0200 0.0900 # 75: asis_r
v -0.0600 1.0300 -0.0950 # 76: psis_r
v -0.1250 0.9100 0.0000 # 77: trochanterion_r
v -0.0850 0.5100 0.0100 # 78: femur_lateral_epicondyle_r
v -0.0200 0.5100 0.0100 # 79: femur_medial_epicondyle_r
v -0.0800 0.4800 0.0000 # 80: tibiale_lateral_r
v -0.0750 0.0800 -0.0100 # 81: malleolus_lateral_r
v -0.0150 0.0900 -0.0100 # 82: malleolus_medial_r
v -0.0400 0.0000 -0.0900 # 83: pternion_r
v -0.0450 0.0000 0.1800 # 84: acropodion_r
v -0.0150 0.0100 0.1250 # 85: metatarsale_mt_i_r
v -0.0700 0.0100 0.1050 # 86: metatarsale_mt_v_r
v -0.0400 0.0300 -0.0850 # 87: calcaneum_r


# --- FACES: Manifold Topology ---
# Cephalic (Head)
f 1 18 2
f 2 18 20
f 2 20 3
f 3 20 21
f 3 21 4
f 4 21 22
f 4 22 5
f 5 22 23
f 5 23 6
f 6 23 24
f 6 24 7
f 7 24 8
f 8 24 9
f 9 24 19
f 9 19 10
f 10 19 11
f 11 18 1
f 1 53 2
f 2 53 55
f 2 55 3
f 3 55 56
f 3 56 4
f 4 56 57
f 4 57 5
f 5 57 58
f 5 58 6
f 6 58 59
f 6 59 7
f 7 59 8
f 8 59 9
f 9 59 54
f 9 54 10
f 10 54 11
f 11 53 1

# Torso & Trunk
f 12 25 26
f 12 26 13
f 13 26 28
f 13 28 14
f 14 28 40
f 14 40 15
f 15 40 17
f 11 25 12
f 11 27 25
f 11 16 27
f 16 41 27
f 16 15 41
f 12 60 61
f 12 61 13
f 13 61 63
f 13 63 14
f 14 63 75
f 14 75 15
f 15 75 17
f 11 60 12
f 11 62 60
f 11 16 62
f 16 76 62
f 16 15 76

# Upper Limbs (L)
f 25 29 26
f 26 29 31
f 27 30 25
f 30 31 29
f 31 32 34
f 31 34 26
f 32 35 36
f 32 36 33
f 33 36 37
f 33 37 38

# Upper Limbs (R)
f 60 64 61
f 61 64 66
f 62 65 60
f 65 66 64
f 66 67 69
f 66 69 61
f 67 70 71
f 67 71 68
f 68 71 72
f 68 72 73

# Lower Limbs (L)
f 40 42 17
f 17 42 31
f 42 43 44
f 42 44 17
f 43 45 44
f 45 46 47
f 45 47 44
f 46 51 49
f 46 49 50
f 46 50 47
f 46 52 48
f 47 48 52

# Lower Limbs (R)
f 75 77 17
f 17 77 31
f 77 78 79
f 77 79 17
f 78 80 79
f 80 81 82
f 80 82 79
f 81 86 84
f 81 84 85
f 81 85 82
f 81 87 83
f 82 83 87
